<?xml version="1.0" encoding="UTF-8" standalone="no"?>
<svg
   xmlns:dc="http://purl.org/dc/elements/1.1/"
   xmlns:cc="http://creativecommons.org/ns#"
   xmlns:rdf="http://www.w3.org/1999/02/22-rdf-syntax-ns#"
   xmlns:svg="http://www.w3.org/2000/svg"
   xmlns="http://www.w3.org/2000/svg"
   xmlns:sodipodi="http://sodipodi.sourceforge.net/DTD/sodipodi-0.dtd"
   xmlns:inkscape="http://www.inkscape.org/namespaces/inkscape"
   sodipodi:docname="HRS2H_S.svg"
   inkscape:version="1.0 (4035a4fb49, 2020-05-01)"
   id="svg8"
   version="1.1"
   viewBox="0 0 9.430378 3.1754255"
   height="3.1754255mm"
   width="9.430378mm">
  <defs
     id="defs2" />
  <sodipodi:namedview
     inkscape:document-rotation="0"
     inkscape:window-maximized="1"
     inkscape:window-y="41"
     inkscape:window-x="-9"
     inkscape:window-height="1001"
     inkscape:window-width="1920"
     showgrid="false"
     inkscape:current-layer="text12"
     inkscape:document-units="mm"
     inkscape:cy="21.341912"
     inkscape:cx="25.355809"
     inkscape:zoom="11.2"
     inkscape:pageshadow="2"
     inkscape:pageopacity="0.0"
     borderopacity="1.0"
     bordercolor="#666666"
     pagecolor="#ffffff"
     id="base" />
  <metadata
     id="metadata5">
    <rdf:RDF>
      <cc:Work
         rdf:about="">
        <dc:format>image/svg+xml</dc:format>
        <dc:type
           rdf:resource="http://purl.org/dc/dcmitype/StillImage" />
        <dc:title />
      </cc:Work>
    </rdf:RDF>
  </metadata>
  <g
     transform="translate(-57.57125,-109.18116)"
     id="layer1"
     inkscape:groupmode="layer"
     inkscape:label="Capa 1">
    <g
       id="text12"
       style="font-style:normal;font-weight:normal;font-size:3.14452px;line-height:1.25;font-family:sans-serif;letter-spacing:0px;word-spacing:0px;fill:none;fill-opacity:1;stroke:#000000;stroke-width:0.078613;stroke-opacity:1"
       transform="scale(0.98710451,1.013064)"
       aria-label="HRS2H-S">
      <path
         inkscape:connector-curvature="0"
         id="path4534"
         style="font-style:normal;font-variant:normal;font-weight:bold;font-stretch:normal;font-family:sans-serif;-inkscape-font-specification:'sans-serif Bold';fill:none;stroke:#000000;stroke-width:0.049142;stroke-opacity:1"
         d="m 58.353181,107.82377 h 0.369524 v 0.54613 h 0.545169 v -0.54613 H 59.6374 v 1.43299 h -0.369526 v -0.60756 h -0.545169 v 0.60756 h -0.369524 z" />
      <path
         inkscape:connector-curvature="0"
         id="path4536"
         style="font-style:normal;font-variant:normal;font-weight:bold;font-stretch:normal;font-family:sans-serif;-inkscape-font-specification:'sans-serif Bold';fill:none;stroke:#000000;stroke-width:0.049142;stroke-opacity:1"
         d="m 60.525219,108.45916 q 0.116136,0 0.166046,-0.0432 0.05087,-0.0432 0.05087,-0.14205 0,-0.0979 -0.05087,-0.14013 -0.04991,-0.0423 -0.166046,-0.0423 h -0.155488 v 0.36761 z m -0.155488,0.25531 v 0.54229 h -0.369525 v -1.43299 h 0.564365 q 0.283142,0 0.414636,0.095 0.132452,0.095 0.132452,0.30042 0,0.14205 -0.06911,0.23323 -0.06815,0.0912 -0.206359,0.13437 0.07583,0.0173 0.135333,0.0787 0.06047,0.0604 0.121896,0.18428 l 0.200598,0.40696 h -0.393519 l -0.174685,-0.35609 q -0.05279,-0.1075 -0.107498,-0.14685 -0.05375,-0.0394 -0.143971,-0.0394 z" />
      <path
         inkscape:connector-curvature="0"
         id="path4538"
         style="font-style:normal;font-variant:normal;font-weight:bold;font-stretch:normal;font-family:sans-serif;-inkscape-font-specification:'sans-serif Bold';fill:none;stroke:#000000;stroke-width:0.049142;stroke-opacity:1"
         d="m 62.510095,107.86888 v 0.3033 q -0.118056,-0.0528 -0.230353,-0.0797 -0.112297,-0.0269 -0.212117,-0.0269 -0.132453,0 -0.1958,0.0365 -0.06335,0.0364 -0.06335,0.11325 0,0.0576 0.04223,0.0902 0.04319,0.0317 0.155488,0.0547 l 0.157408,0.0317 q 0.238991,0.048 0.339771,0.14589 0.100779,0.0979 0.100779,0.27834 0,0.23707 -0.141091,0.35321 -0.140131,0.11517 -0.429033,0.11517 -0.136292,0 -0.273544,-0.0259 -0.137252,-0.0259 -0.274504,-0.0768 v -0.31193 q 0.137252,0.0729 0.264906,0.11037 0.128614,0.0365 0.24763,0.0365 0.120935,0 0.185242,-0.0403 0.06431,-0.0403 0.06431,-0.11518 0,-0.0672 -0.04415,-0.10366 -0.04319,-0.0365 -0.173724,-0.0653 l -0.143012,-0.0317 q -0.214996,-0.0461 -0.314815,-0.14685 -0.09886,-0.10078 -0.09886,-0.27162 0,-0.21404 0.138213,-0.32922 0.138212,-0.11517 0.397359,-0.11517 0.118056,0 0.24283,0.0182 0.124775,0.0173 0.258188,0.0528 z" />
      <path
         inkscape:connector-curvature="0"
         id="path4540"
         style="font-style:normal;font-variant:normal;font-weight:bold;font-stretch:normal;font-family:sans-serif;-inkscape-font-specification:'sans-serif Bold';fill:none;stroke:#000000;stroke-width:0.049142;stroke-opacity:1"
         d="m 63.315371,108.98514 h 0.630592 v 0.27162 h -1.041388 v -0.27162 l 0.523093,-0.46167 q 0.07007,-0.0633 0.10366,-0.12381 0.03359,-0.0605 0.03359,-0.12574 0,-0.10078 -0.06815,-0.16221 -0.06719,-0.0615 -0.179484,-0.0615 -0.08638,0 -0.189081,0.0375 -0.102699,0.0364 -0.219795,0.10941 v -0.31481 q 0.124774,-0.0413 0.24667,-0.0624 0.121895,-0.0221 0.238991,-0.0221 0.257228,0 0.399279,0.11326 0.143011,0.11326 0.143011,0.31578 0,0.11709 -0.06047,0.21884 -0.06047,0.10077 -0.254348,0.27066 z" />
      <path
         inkscape:connector-curvature="0"
         id="path4542"
         style="font-style:normal;font-variant:normal;font-weight:bold;font-stretch:normal;font-family:sans-serif;-inkscape-font-specification:'sans-serif Bold';fill:none;stroke:#000000;stroke-width:0.049142;stroke-opacity:1"
         d="m 64.296292,107.82377 h 0.369524 v 0.54613 h 0.54517 v -0.54613 h 0.369525 v 1.43299 h -0.369525 v -0.60756 h -0.54517 v 0.60756 h -0.369524 z" />
      <path
         inkscape:connector-curvature="0"
         id="path4544"
         style="font-style:normal;font-variant:normal;font-weight:bold;font-stretch:normal;font-family:sans-serif;-inkscape-font-specification:'sans-serif Bold';fill:none;stroke:#000000;stroke-width:0.049142;stroke-opacity:1"
         d="m 65.869411,108.5513 h 0.602757 v 0.27931 h -0.602757 z" />
      <path
         inkscape:connector-curvature="0"
         id="path4546"
         style="font-style:normal;font-variant:normal;font-weight:bold;font-stretch:normal;font-family:sans-serif;-inkscape-font-specification:'sans-serif Bold';fill:none;stroke:#000000;stroke-width:0.049142;stroke-opacity:1"
         d="m 67.758307,107.86888 v 0.3033 q -0.118056,-0.0528 -0.230353,-0.0797 -0.112297,-0.0269 -0.212117,-0.0269 -0.132453,0 -0.1958,0.0365 -0.06335,0.0364 -0.06335,0.11325 0,0.0576 0.04223,0.0902 0.04319,0.0317 0.155488,0.0547 l 0.157408,0.0317 q 0.238991,0.048 0.339771,0.14589 0.100779,0.0979 0.100779,0.27834 0,0.23707 -0.141091,0.35321 -0.140131,0.11517 -0.429033,0.11517 -0.136292,0 -0.273544,-0.0259 -0.137252,-0.0259 -0.274504,-0.0768 v -0.31193 q 0.137252,0.0729 0.264906,0.11037 0.128614,0.0365 0.247629,0.0365 0.120936,0 0.185243,-0.0403 0.06431,-0.0403 0.06431,-0.11518 0,-0.0672 -0.04415,-0.10366 -0.04319,-0.0365 -0.173724,-0.0653 l -0.143012,-0.0317 q -0.214996,-0.0461 -0.314815,-0.14685 -0.09886,-0.10078 -0.09886,-0.27162 0,-0.21404 0.138213,-0.32922 0.138212,-0.11517 0.397359,-0.11517 0.118056,0 0.242831,0.0182 0.124774,0.0173 0.258187,0.0528 z" />
    </g>
    <g
       id="text16"
       style="font-style:normal;font-weight:normal;font-size:3.14452px;line-height:1.25;font-family:sans-serif;letter-spacing:0px;word-spacing:0px;fill:none;fill-opacity:1;stroke:#000000;stroke-width:0.078613;stroke-opacity:1"
       transform="matrix(0.61705158,0,0,0.63327918,21.58273,42.121055)"
       aria-label="KHE">
      <path
         inkscape:connector-curvature="0"
         id="path4527"
         style="font-style:italic;font-variant:normal;font-weight:bold;font-stretch:normal;font-family:sans-serif;-inkscape-font-specification:'sans-serif Bold Italic';fill:none;stroke:#000000;stroke-width:0.078613;stroke-opacity:1"
         d="m 58.817869,108.57601 h 0.591134 l -0.161219,0.82452 0.974986,-0.82452 h 0.713966 l -1.314311,1.11317 0.990339,1.1792 h -0.694005 l -0.770776,-0.95656 -0.185785,0.95656 h -0.591133 z" />
      <path
         inkscape:connector-curvature="0"
         id="path4529"
         style="font-style:italic;font-variant:normal;font-weight:bold;font-stretch:normal;font-family:sans-serif;-inkscape-font-specification:'sans-serif Bold Italic';fill:none;stroke:#000000;stroke-width:0.078613;stroke-opacity:1"
         d="m 61.256102,108.57601 h 0.591133 l -0.170431,0.87365 h 0.872113 l 0.168896,-0.87365 h 0.591133 l -0.446805,2.29237 h -0.591133 l 0.188856,-0.97192 h -0.870578 l -0.188856,0.97192 h -0.591133 z" />
      <path
         inkscape:connector-curvature="0"
         id="path4531"
         style="font-style:italic;font-variant:normal;font-weight:bold;font-stretch:normal;font-family:sans-serif;-inkscape-font-specification:'sans-serif Bold Italic';fill:none;stroke:#000000;stroke-width:0.078613;stroke-opacity:1"
         d="m 63.890867,108.57601 h 1.593756 l -0.08752,0.4468 H 64.39448 l -0.08291,0.42685 h 0.944278 l -0.08905,0.4468 h -0.942742 l -0.101337,0.52511 h 1.034866 l -0.08445,0.44681 h -1.629071 z" />
    </g>
  </g>
</svg>
