<?xml version="1.0" encoding="UTF-8" standalone="no"?>
<svg
   xmlns:dc="http://purl.org/dc/elements/1.1/"
   xmlns:cc="http://creativecommons.org/ns#"
   xmlns:rdf="http://www.w3.org/1999/02/22-rdf-syntax-ns#"
   xmlns:svg="http://www.w3.org/2000/svg"
   xmlns="http://www.w3.org/2000/svg"
   xmlns:sodipodi="http://sodipodi.sourceforge.net/DTD/sodipodi-0.dtd"
   xmlns:inkscape="http://www.inkscape.org/namespaces/inkscape"
   version="1.1"
   width="4.9180245cm"
   height="1.7880242cm"
   viewBox="0 0 19362.302 7039.4653"
   id="svg398"
   sodipodi:docname="SevenSegment.svg"
   inkscape:version="1.0.1 (3bc2e813f5, 2020-09-07)">
  <metadata
     id="metadata404">
    <rdf:RDF>
      <cc:Work
         rdf:about="">
        <dc:format>image/svg+xml</dc:format>
        <dc:type
           rdf:resource="http://purl.org/dc/dcmitype/StillImage" />
        <dc:title>SVG Picture created as LDS-5461BS.svg date 2020/01/21 15:26:43 </dc:title>
      </cc:Work>
    </rdf:RDF>
  </metadata>
  <defs
     id="defs402" />
  <sodipodi:namedview
     pagecolor="#ffffff"
     bordercolor="#666666"
     borderopacity="1"
     objecttolerance="10"
     gridtolerance="10"
     guidetolerance="10"
     inkscape:pageopacity="0"
     inkscape:pageshadow="2"
     inkscape:window-width="1920"
     inkscape:window-height="1001"
     id="namedview400"
     showgrid="false"
     inkscape:zoom="4.7920728"
     inkscape:cx="69.913544"
     inkscape:cy="25.518766"
     inkscape:window-x="-9"
     inkscape:window-y="41"
     inkscape:window-maximized="1"
     inkscape:current-layer="svg398"
     inkscape:document-rotation="0" />
  <title
     id="title2">SVG Picture created as LDS-5461BS.svg date 2020/01/21 15:26:43 </title>
  <desc
     id="desc4">Picture generated by Eeschema-SVG </desc>
  <g
     style="fill:#000000;fill-opacity:1;stroke:#000000;stroke-linecap:round;stroke-linejoin:round;stroke-opacity:1"
     id="g6"
     transform="translate(12312.419,-17974.716)" />
  <g
     style="fill:#840000;fill-opacity:0;stroke:#840000;stroke-width:-10;stroke-linecap:round;stroke-linejoin:round;stroke-opacity:1"
     id="g8"
     transform="translate(12312.419,-17974.716)" />
  <g
     style="fill:#ffffc2;fill-opacity:0;stroke:#ffffc2;stroke-width:-10;stroke-linecap:round;stroke-linejoin:round;stroke-opacity:1"
     id="g10"
     transform="translate(12312.419,-17974.716)" />
  <g
     style="fill:#840000;fill-opacity:0.6;stroke:#840000;stroke-width:0;stroke-linecap:round;stroke-linejoin:round;stroke-opacity:1"
     id="g16"
     transform="translate(12312.419,-17974.716)" />
  <g
     style="fill:#840084;fill-opacity:0;stroke:#840084;stroke-width:60;stroke-linecap:round;stroke-linejoin:round;stroke-opacity:1"
     id="g360"
     transform="translate(12312.419,-17974.716)" />
  <path
     style="fill:none;stroke:#000000;stroke-width:72.8965;stroke-linecap:round;stroke-linejoin:round;stroke-miterlimit:4;stroke-dasharray:none;stroke-opacity:1;paint-order:normal"
     d="M 1680.4933,1256.1389 H 3627.945 l 310.4636,-655.37319 -2441.3708,13.9441 c -282.4927,79.23205 -370.5427,241.62472 -446.879,409.02719 z"
     id="path452"
     inkscape:connector-curvature="0"
     sodipodi:nodetypes="cccccc" />
  <path
     style="fill:none;stroke:#000000;stroke-width:72.8965;stroke-linecap:round;stroke-linejoin:round;stroke-miterlimit:4;stroke-dasharray:none;stroke-opacity:1;paint-order:normal"
     d="M 952.96543,3436.1385 1501.7922,2952.9997 1658.1247,1427.9903 1019.4899,1178.2043 809.93785,3288.2389 Z"
     id="path454"
     inkscape:connector-curvature="0" />
  <path
     style="fill:none;stroke:#000000;stroke-width:72.8965;stroke-linecap:round;stroke-linejoin:round;stroke-miterlimit:4;stroke-dasharray:none;stroke-opacity:1;paint-order:normal"
     d="m 1115.9504,3524.8783 296.0338,325.3791 2128.7826,-3.2867 362.5581,-322.0924 -302.6862,-328.6659 -2135.435,6.5734 z"
     id="path456"
     inkscape:connector-curvature="0" />
  <path
     style="fill:none;stroke:#000000;stroke-width:72.8965;stroke-linecap:round;stroke-linejoin:round;stroke-miterlimit:4;stroke-dasharray:none;stroke-opacity:1;paint-order:normal"
     d="M 4069.636,3442.7118 4252.5784,3278.3789 4482.088,1017.158 C 4396.4119,672.83419 4229.2588,637.13542 4106.2248,612.89908 l -299.3601,644.18502 -182.9422,1715.6356 z"
     id="path458"
     inkscape:connector-curvature="0"
     sodipodi:nodetypes="ccccccc" />
  <path
     style="fill:none;stroke:#000000;stroke-width:72.8965;stroke-linecap:round;stroke-linejoin:round;stroke-miterlimit:4;stroke-dasharray:none;stroke-opacity:1;paint-order:normal"
     d="M 941.96705,3608.0455 1388.8461,4093.7653 1231.2624,5632.2655 549.18394,5869.3154 760.86346,3773.0507 Z"
     id="path460"
     inkscape:connector-curvature="0" />
  <path
     style="fill:none;stroke:#000000;stroke-width:72.8965;stroke-linecap:round;stroke-linejoin:round;stroke-miterlimit:4;stroke-dasharray:none;stroke-opacity:1;paint-order:normal"
     d="m 1207.7425,5790.2988 -675.02252,244.0217 c 56.74347,259.0395 202.39167,347.552 364.55918,404.3789 l 2464.89044,-2.3235 -185.8076,-655.3735 z"
     id="path462"
     inkscape:connector-curvature="0"
     sodipodi:nodetypes="cccccc" />
  <path
     style="fill:none;stroke:#000000;stroke-width:72.8965;stroke-linecap:round;stroke-linejoin:round;stroke-miterlimit:4;stroke-dasharray:none;stroke-opacity:1;paint-order:normal"
     d="m 3524.4573,6436.3759 -181.1036,-641.4292 169.3436,-1703.5054 531.5507,-481.0719 155.2316,148.7373 -225.7913,2265.9178 c -87.6509,270.6528 -255.6296,368.5538 -449.231,411.3514 z"
     id="path464"
     inkscape:connector-curvature="0"
     sodipodi:nodetypes="ccccccc" />
  <ellipse
     id="path466"
     cx="4581.8745"
     cy="6098.3315"
     style="fill:none;stroke:#000000;stroke-width:72.8965;stroke-linecap:round;stroke-linejoin:round;stroke-miterlimit:4;stroke-dasharray:none;stroke-opacity:1;paint-order:normal"
     rx="322.64362"
     ry="318.80585" />
  <path
     style="fill:none;stroke:#000000;stroke-width:72.8965;stroke-linecap:round;stroke-linejoin:round;stroke-miterlimit:4;stroke-dasharray:none;stroke-opacity:1;paint-order:normal"
     d="m 6322.8646,1256.1389 h 1947.4518 l 310.4635,-655.37319 -2441.3707,13.9441 c -282.4927,79.23205 -370.5428,241.62472 -446.879,409.02719 z"
     id="path452-5"
     inkscape:connector-curvature="0"
     sodipodi:nodetypes="cccccc" />
  <path
     style="fill:none;stroke:#000000;stroke-width:72.8965;stroke-linecap:round;stroke-linejoin:round;stroke-miterlimit:4;stroke-dasharray:none;stroke-opacity:1;paint-order:normal"
     d="m 5595.3367,3436.1385 548.8269,-483.1388 156.3323,-1525.0094 -638.6347,-249.786 -209.552,2110.0346 z"
     id="path454-0"
     inkscape:connector-curvature="0" />
  <path
     style="fill:none;stroke:#000000;stroke-width:72.8965;stroke-linecap:round;stroke-linejoin:round;stroke-miterlimit:4;stroke-dasharray:none;stroke-opacity:1;paint-order:normal"
     d="m 5758.3217,3524.8783 296.0338,325.3791 2128.7826,-3.2867 362.5581,-322.0924 -302.6861,-328.6659 -2135.4351,6.5734 z"
     id="path456-6"
     inkscape:connector-curvature="0" />
  <path
     style="fill:none;stroke:#000000;stroke-width:72.8965;stroke-linecap:round;stroke-linejoin:round;stroke-miterlimit:4;stroke-dasharray:none;stroke-opacity:1;paint-order:normal"
     d="M 8712.0074,3442.7118 8894.9497,3278.3789 9124.4592,1017.158 C 9038.7833,672.83419 8871.6302,637.13542 8748.5961,612.89908 L 8449.236,1257.0841 8266.2938,2972.7197 Z"
     id="path458-6"
     inkscape:connector-curvature="0"
     sodipodi:nodetypes="ccccccc" />
  <path
     style="fill:none;stroke:#000000;stroke-width:72.8965;stroke-linecap:round;stroke-linejoin:round;stroke-miterlimit:4;stroke-dasharray:none;stroke-opacity:1;paint-order:normal"
     d="m 5584.3384,3608.0455 446.879,485.7198 -157.5836,1538.5002 -682.0785,237.0499 211.6795,-2096.2647 z"
     id="path460-9"
     inkscape:connector-curvature="0" />
  <path
     style="fill:none;stroke:#000000;stroke-width:72.8965;stroke-linecap:round;stroke-linejoin:round;stroke-miterlimit:4;stroke-dasharray:none;stroke-opacity:1;paint-order:normal"
     d="m 5850.1138,5790.2988 -675.0225,244.0217 c 56.7435,259.0395 202.3916,347.552 364.5591,404.3789 l 2464.8905,-2.3235 -185.8076,-655.3735 z"
     id="path462-6"
     inkscape:connector-curvature="0"
     sodipodi:nodetypes="cccccc" />
  <path
     style="fill:none;stroke:#000000;stroke-width:72.8965;stroke-linecap:round;stroke-linejoin:round;stroke-miterlimit:4;stroke-dasharray:none;stroke-opacity:1;paint-order:normal"
     d="m 8166.8286,6436.3759 -181.1036,-641.4292 169.3437,-1703.5054 531.5507,-481.0719 155.2315,148.7373 -225.7912,2265.9178 c -87.651,270.6528 -255.6297,368.5538 -449.2311,411.3514 z"
     id="path464-3"
     inkscape:connector-curvature="0"
     sodipodi:nodetypes="ccccccc" />
  <ellipse
     id="path466-8"
     cx="9224.2461"
     cy="6098.3315"
     style="fill:none;stroke:#000000;stroke-width:72.8965;stroke-linecap:round;stroke-linejoin:round;stroke-miterlimit:4;stroke-dasharray:none;stroke-opacity:1;paint-order:normal"
     rx="322.64362"
     ry="318.80585" />
  <path
     style="fill:none;stroke:#000000;stroke-width:72.8965;stroke-linecap:round;stroke-linejoin:round;stroke-miterlimit:4;stroke-dasharray:none;stroke-opacity:1;paint-order:normal"
     d="m 10936.799,1256.1389 h 1947.452 l 310.463,-655.37319 -2441.371,13.9441 c -282.492,79.23205 -370.542,241.62472 -446.878,409.02719 z"
     id="path452-2"
     inkscape:connector-curvature="0"
     sodipodi:nodetypes="cccccc" />
  <path
     style="fill:none;stroke:#000000;stroke-width:72.8965;stroke-linecap:round;stroke-linejoin:round;stroke-miterlimit:4;stroke-dasharray:none;stroke-opacity:1;paint-order:normal"
     d="m 10209.271,3436.1385 548.827,-483.1388 156.332,-1525.0094 -638.635,-249.786 -209.551,2110.0346 z"
     id="path454-2"
     inkscape:connector-curvature="0" />
  <path
     style="fill:none;stroke:#000000;stroke-width:72.8965;stroke-linecap:round;stroke-linejoin:round;stroke-miterlimit:4;stroke-dasharray:none;stroke-opacity:1;paint-order:normal"
     d="m 10372.256,3524.8783 296.034,325.3791 2128.782,-3.2867 362.558,-322.0924 -302.686,-328.6659 -2135.435,6.5734 z"
     id="path456-2"
     inkscape:connector-curvature="0" />
  <path
     style="fill:none;stroke:#000000;stroke-width:72.8965;stroke-linecap:round;stroke-linejoin:round;stroke-miterlimit:4;stroke-dasharray:none;stroke-opacity:1;paint-order:normal"
     d="m 13325.942,3442.7118 182.942,-164.3329 229.51,-2261.2209 c -85.676,-344.32381 -252.829,-380.02258 -375.863,-404.25892 l -299.36,644.18502 -182.942,1715.6356 z"
     id="path458-0"
     inkscape:connector-curvature="0"
     sodipodi:nodetypes="ccccccc" />
  <path
     style="fill:none;stroke:#000000;stroke-width:72.8965;stroke-linecap:round;stroke-linejoin:round;stroke-miterlimit:4;stroke-dasharray:none;stroke-opacity:1;paint-order:normal"
     d="m 10198.272,3608.0455 446.88,485.7198 -157.584,1538.5002 -682.0783,237.0499 211.6803,-2096.2647 z"
     id="path460-0"
     inkscape:connector-curvature="0" />
  <path
     style="fill:none;stroke:#000000;stroke-width:72.8965;stroke-linecap:round;stroke-linejoin:round;stroke-miterlimit:4;stroke-dasharray:none;stroke-opacity:1;paint-order:normal"
     d="m 10464.048,5790.2988 -675.0223,244.0217 c 56.7434,259.0395 202.3916,347.552 364.5593,404.3789 l 2464.89,-2.3235 -185.807,-655.3735 z"
     id="path462-3"
     inkscape:connector-curvature="0"
     sodipodi:nodetypes="cccccc" />
  <path
     style="fill:none;stroke:#000000;stroke-width:72.8965;stroke-linecap:round;stroke-linejoin:round;stroke-miterlimit:4;stroke-dasharray:none;stroke-opacity:1;paint-order:normal"
     d="m 12780.764,6436.3759 -181.105,-641.4292 169.345,-1703.5054 531.549,-481.0719 155.232,148.7373 -225.791,2265.9178 c -87.651,270.6528 -255.629,368.5538 -449.23,411.3514 z"
     id="path464-9"
     inkscape:connector-curvature="0"
     sodipodi:nodetypes="ccccccc" />
  <ellipse
     id="path466-5"
     cx="13838.181"
     cy="6098.3315"
     style="fill:none;stroke:#000000;stroke-width:72.8965;stroke-linecap:round;stroke-linejoin:round;stroke-miterlimit:4;stroke-dasharray:none;stroke-opacity:1;paint-order:normal"
     rx="322.64362"
     ry="318.80585" />
  <path
     style="fill:none;stroke:#000000;stroke-width:72.8965;stroke-linecap:round;stroke-linejoin:round;stroke-miterlimit:4;stroke-dasharray:none;stroke-opacity:1;paint-order:normal"
     d="m 15605.556,1256.1389 h 1947.452 l 310.463,-655.37319 -2441.371,13.9441 c -282.492,79.23205 -370.542,241.62472 -446.879,409.02719 z"
     id="path452-1"
     inkscape:connector-curvature="0"
     sodipodi:nodetypes="cccccc" />
  <path
     style="fill:none;stroke:#000000;stroke-width:72.8965;stroke-linecap:round;stroke-linejoin:round;stroke-miterlimit:4;stroke-dasharray:none;stroke-opacity:1;paint-order:normal"
     d="m 14878.028,3436.1385 548.827,-483.1388 156.332,-1525.0094 -638.635,-249.786 L 14735,3288.2389 Z"
     id="path454-23"
     inkscape:connector-curvature="0" />
  <path
     style="fill:none;stroke:#000000;stroke-width:72.8965;stroke-linecap:round;stroke-linejoin:round;stroke-miterlimit:4;stroke-dasharray:none;stroke-opacity:1;paint-order:normal"
     d="m 15041.013,3524.8783 296.034,325.3791 2128.782,-3.2867 362.559,-322.0924 -302.686,-328.6659 -2135.435,6.5734 z"
     id="path456-5"
     inkscape:connector-curvature="0" />
  <path
     style="fill:none;stroke:#000000;stroke-width:72.8965;stroke-linecap:round;stroke-linejoin:round;stroke-miterlimit:4;stroke-dasharray:none;stroke-opacity:1;paint-order:normal"
     d="m 17994.7,3442.7118 182.941,-164.3329 229.51,-2261.2209 c -85.676,-344.32381 -252.83,-380.02258 -375.864,-404.25892 l -299.359,644.18502 -182.943,1715.6356 z"
     id="path458-69"
     inkscape:connector-curvature="0"
     sodipodi:nodetypes="ccccccc" />
  <path
     style="fill:none;stroke:#000000;stroke-width:72.8965;stroke-linecap:round;stroke-linejoin:round;stroke-miterlimit:4;stroke-dasharray:none;stroke-opacity:1;paint-order:normal"
     d="m 14867.03,3608.0455 446.879,485.7198 -157.584,1538.5002 -682.078,237.0499 211.68,-2096.2647 z"
     id="path460-08"
     inkscape:connector-curvature="0" />
  <path
     style="fill:none;stroke:#000000;stroke-width:72.8965;stroke-linecap:round;stroke-linejoin:round;stroke-miterlimit:4;stroke-dasharray:none;stroke-opacity:1;paint-order:normal"
     d="m 15132.805,5790.2988 -675.023,244.0217 c 56.744,259.0395 202.392,347.552 364.56,404.3789 l 2464.89,-2.3235 -185.807,-655.3735 z"
     id="path462-4"
     inkscape:connector-curvature="0"
     sodipodi:nodetypes="cccccc" />
  <path
     style="fill:none;stroke:#000000;stroke-width:72.8965;stroke-linecap:round;stroke-linejoin:round;stroke-miterlimit:4;stroke-dasharray:none;stroke-opacity:1;paint-order:normal"
     d="m 17449.52,6436.3759 -181.103,-641.4292 169.343,-1703.5054 531.551,-481.0719 155.231,148.7373 -225.792,2265.9178 c -87.649,270.6528 -255.628,368.5538 -449.23,411.3514 z"
     id="path464-6"
     inkscape:connector-curvature="0"
     sodipodi:nodetypes="ccccccc" />
  <ellipse
     id="path466-2"
     cx="18506.938"
     cy="6098.3315"
     style="fill:none;stroke:#000000;stroke-width:72.8965;stroke-linecap:round;stroke-linejoin:round;stroke-miterlimit:4;stroke-dasharray:none;stroke-opacity:1;paint-order:normal"
     rx="322.64362"
     ry="318.80585" />
</svg>
