<?xml version="1.0" encoding="UTF-8" standalone="no"?>
<svg
   xmlns:dc="http://purl.org/dc/elements/1.1/"
   xmlns:cc="http://creativecommons.org/ns#"
   xmlns:rdf="http://www.w3.org/1999/02/22-rdf-syntax-ns#"
   xmlns:svg="http://www.w3.org/2000/svg"
   xmlns="http://www.w3.org/2000/svg"
   xmlns:sodipodi="http://sodipodi.sourceforge.net/DTD/sodipodi-0.dtd"
   xmlns:inkscape="http://www.inkscape.org/namespaces/inkscape"
   version="1.1"
   width="5.0000033cm"
   height="1.8000146cm"
   viewBox="0 0 19685.053 7086.6717"
   id="svg398"
   sodipodi:docname="LDS-5461BS.svg"
   inkscape:version="0.92.4 (5da689c313, 2019-01-14)">
  <metadata
     id="metadata404">
    <rdf:RDF>
      <cc:Work
         rdf:about="">
        <dc:format>image/svg+xml</dc:format>
        <dc:type
           rdf:resource="http://purl.org/dc/dcmitype/StillImage" />
        <dc:title>SVG Picture created as LDS-5461BS.svg date 2020/01/21 15:26:43 </dc:title>
      </cc:Work>
    </rdf:RDF>
  </metadata>
  <defs
     id="defs402" />
  <sodipodi:namedview
     pagecolor="#ffffff"
     bordercolor="#666666"
     borderopacity="1"
     objecttolerance="10"
     gridtolerance="10"
     guidetolerance="10"
     inkscape:pageopacity="0"
     inkscape:pageshadow="2"
     inkscape:window-width="1920"
     inkscape:window-height="1001"
     id="namedview400"
     showgrid="false"
     inkscape:zoom="4.7920728"
     inkscape:cx="104.37042"
     inkscape:cy="22.260824"
     inkscape:window-x="-9"
     inkscape:window-y="41"
     inkscape:window-maximized="1"
     inkscape:current-layer="svg398" />
  <title
     id="title2">SVG Picture created as LDS-5461BS.svg date 2020/01/21 15:26:43 </title>
  <desc
     id="desc4">Picture generated by Eeschema-SVG </desc>
  <g
     style="fill:#000000;fill-opacity:1;stroke:#000000;stroke-linecap:round;stroke-linejoin:round;stroke-opacity:1"
     id="g6"
     transform="translate(10078.152,-8707.0864)" />
  <g
     style="fill:#840000;fill-opacity:0;stroke:#840000;stroke-width:-10;stroke-linecap:round;stroke-linejoin:round;stroke-opacity:1"
     id="g8"
     transform="translate(10078.152,-8707.0864)" />
  <g
     style="fill:#ffffc2;fill-opacity:0;stroke:#ffffc2;stroke-width:-10;stroke-linecap:round;stroke-linejoin:round;stroke-opacity:1"
     id="g10"
     transform="translate(10078.152,-8707.0864)" />
  <g
     style="fill:#840000;fill-opacity:0.6;stroke:#840000;stroke-width:0;stroke-linecap:round;stroke-linejoin:round;stroke-opacity:1"
     id="g16"
     transform="translate(10078.152,-8707.0864)" />
  <g
     style="fill:#840084;fill-opacity:0;stroke:#840084;stroke-width:60;stroke-linecap:round;stroke-linejoin:round;stroke-opacity:1"
     id="g360"
     transform="translate(10078.152,-8707.0864)" />
  <path
     style="fill:none;stroke:#000000;stroke-width:104.16666657;stroke-linecap:round;stroke-linejoin:round;stroke-opacity:1;stroke-miterlimit:4;stroke-dasharray:none;paint-order:normal"
     d="M 1252.4179,810.38089 H 3343.6855 L 3677.0762,19.187506 1055.4145,36.02139 C 752.06022,131.67357 657.50783,327.72067 575.53426,529.81584 Z"
     id="path452"
     inkscape:connector-curvature="0"
     sodipodi:nodetypes="cccccc" />
  <path
     style="fill:none;stroke:#000000;stroke-width:104.16666657;stroke-linecap:round;stroke-linejoin:round;stroke-opacity:1;stroke-miterlimit:4;stroke-dasharray:none;paint-order:normal"
     d="M 471.16329,3442.1659 1060.52,2858.901 1228.3973,1017.847 542.60044,716.29507 317.57338,3263.6154 Z"
     id="path454"
     inkscape:connector-curvature="0" />
  <path
     style="fill:none;stroke:#000000;stroke-width:104.16666657;stroke-linecap:round;stroke-linejoin:round;stroke-opacity:1;stroke-miterlimit:4;stroke-dasharray:none;paint-order:normal"
     d="m 646.18438,3549.2962 317.8954,392.811 2285.98952,-3.9678 389.3324,-388.8432 -325.039,-396.7789 -2293.1332,7.9356 z"
     id="path456"
     inkscape:connector-curvature="0" />
  <path
     style="fill:none;stroke:#000000;stroke-width:104.16666657;stroke-linecap:round;stroke-linejoin:round;stroke-opacity:1;stroke-miterlimit:4;stroke-dasharray:none;paint-order:normal"
     d="M 3817.9945,3450.1014 4014.4469,3251.712 4260.9054,521.87336 C 4168.9023,106.19153 3989.4053,63.094506 3857.2853,33.835402 L 3535.818,811.52195 3339.3659,2882.7077 Z"
     id="path458"
     inkscape:connector-curvature="0"
     sodipodi:nodetypes="ccccccc" />
  <path
     style="fill:none;stroke:#000000;stroke-width:104.16666657;stroke-linecap:round;stroke-linejoin:round;stroke-opacity:1;stroke-miterlimit:4;stroke-dasharray:none;paint-order:normal"
     d="M 459.3527,3649.699 939.23297,4236.0799 770.01202,6093.4205 37.563246,6379.5969 264.87493,3848.9001 Z"
     id="path460"
     inkscape:connector-curvature="0" />
  <path
     style="fill:none;stroke:#000000;stroke-width:104.16666657;stroke-linecap:round;stroke-linejoin:round;stroke-opacity:1;stroke-miterlimit:4;stroke-dasharray:none;paint-order:normal"
     d="m 744.75517,6284.2048 -724.871721,294.593 c 60.933877,312.7231 217.337941,419.5791 391.481241,488.1829 l 2646.91831,-2.8051 -199.5291,-791.1937 z"
     id="path462"
     inkscape:connector-curvature="0"
     sodipodi:nodetypes="cccccc" />
  <path
     style="fill:none;stroke:#000000;stroke-width:104.16666657;stroke-linecap:round;stroke-linejoin:round;stroke-opacity:1;stroke-miterlimit:4;stroke-dasharray:none;paint-order:normal"
     d="m 3232.5553,7064.1756 -194.4777,-774.3597 181.8493,-2056.5416 570.8047,-580.7697 166.6952,179.5617 -242.4655,2735.509 c -94.1238,326.7431 -274.5074,444.9333 -482.406,496.6003 z"
     id="path464"
     inkscape:connector-curvature="0"
     sodipodi:nodetypes="ccccccc" />
  <ellipse
     id="path466"
     cx="4368.061"
     cy="6656.0742"
     style="fill:none;stroke:#000000;stroke-width:104.16666657;stroke-opacity:1;stroke-miterlimit:4;stroke-dasharray:none;stroke-linejoin:round;stroke-linecap:round;paint-order:normal"
     rx="346.47028"
     ry="384.87552" />
  <path
     style="fill:none;stroke:#000000;stroke-width:104.16666657;stroke-linecap:round;stroke-linejoin:round;stroke-opacity:1;stroke-miterlimit:4;stroke-dasharray:none;paint-order:normal"
     d="M 6237.6202,810.38089 H 8328.8878 L 8662.2785,19.187506 6040.6168,36.02139 c -303.3542,95.65218 -397.9066,291.69928 -479.8802,493.79445 z"
     id="path452-5"
     inkscape:connector-curvature="0"
     sodipodi:nodetypes="cccccc" />
  <path
     style="fill:none;stroke:#000000;stroke-width:104.16666657;stroke-linecap:round;stroke-linejoin:round;stroke-opacity:1;stroke-miterlimit:4;stroke-dasharray:none;paint-order:normal"
     d="M 5456.3656,3442.1659 6045.7223,2858.901 6213.5996,1017.847 5527.8028,716.29507 5302.7757,3263.6154 Z"
     id="path454-0"
     inkscape:connector-curvature="0" />
  <path
     style="fill:none;stroke:#000000;stroke-width:104.16666657;stroke-linecap:round;stroke-linejoin:round;stroke-opacity:1;stroke-miterlimit:4;stroke-dasharray:none;paint-order:normal"
     d="m 5631.3867,3549.2962 317.8954,392.811 2285.9895,-3.9678 389.3324,-388.8432 -325.039,-396.7789 -2293.1332,7.9356 z"
     id="path456-6"
     inkscape:connector-curvature="0" />
  <path
     style="fill:none;stroke:#000000;stroke-width:104.16666657;stroke-linecap:round;stroke-linejoin:round;stroke-opacity:1;stroke-miterlimit:4;stroke-dasharray:none;paint-order:normal"
     d="M 8803.1969,3450.1014 8999.6493,3251.712 9246.1077,521.87336 C 9154.1046,106.19153 8974.6077,63.094506 8842.4876,33.835402 L 8521.0203,811.52195 8324.5682,2882.7077 Z"
     id="path458-6"
     inkscape:connector-curvature="0"
     sodipodi:nodetypes="ccccccc" />
  <path
     style="fill:none;stroke:#000000;stroke-width:104.16666657;stroke-linecap:round;stroke-linejoin:round;stroke-opacity:1;stroke-miterlimit:4;stroke-dasharray:none;paint-order:normal"
     d="m 5444.555,3649.699 479.8803,586.3809 -169.2209,1857.3406 -732.4488,286.1764 227.3117,-2530.6968 z"
     id="path460-9"
     inkscape:connector-curvature="0" />
  <path
     style="fill:none;stroke:#000000;stroke-width:104.16666657;stroke-linecap:round;stroke-linejoin:round;stroke-opacity:1;stroke-miterlimit:4;stroke-dasharray:none;paint-order:normal"
     d="m 5729.9575,6284.2048 -724.8717,294.593 c 60.9339,312.7231 217.3379,419.5791 391.4812,488.1829 l 2646.9183,-2.8051 -199.5291,-791.1937 z"
     id="path462-6"
     inkscape:connector-curvature="0"
     sodipodi:nodetypes="cccccc" />
  <path
     style="fill:none;stroke:#000000;stroke-width:104.16666657;stroke-linecap:round;stroke-linejoin:round;stroke-opacity:1;stroke-miterlimit:4;stroke-dasharray:none;paint-order:normal"
     d="m 8217.7576,7064.1756 -194.4777,-774.3597 181.8493,-2056.5416 570.8048,-580.7697 166.6951,179.5617 -242.4655,2735.509 c -94.1238,326.7431 -274.5074,444.9333 -482.406,496.6003 z"
     id="path464-3"
     inkscape:connector-curvature="0"
     sodipodi:nodetypes="ccccccc" />
  <ellipse
     id="path466-8"
     cx="9353.2637"
     cy="6656.0742"
     style="fill:none;stroke:#000000;stroke-width:104.16666657;stroke-opacity:1;stroke-miterlimit:4;stroke-dasharray:none;stroke-linejoin:round;stroke-linecap:round;paint-order:normal"
     rx="346.47028"
     ry="384.87552" />
  <path
     style="fill:none;stroke:#000000;stroke-width:104.16666657;stroke-linecap:round;stroke-linejoin:round;stroke-opacity:1;stroke-miterlimit:4;stroke-dasharray:none;paint-order:normal"
     d="m 11192.286,810.38089 h 2091.267 L 13616.944,19.187506 10995.282,36.02139 c -303.354,95.65218 -397.906,291.69928 -479.88,493.79445 z"
     id="path452-2"
     inkscape:connector-curvature="0"
     sodipodi:nodetypes="cccccc" />
  <path
     style="fill:none;stroke:#000000;stroke-width:104.16666657;stroke-linecap:round;stroke-linejoin:round;stroke-opacity:1;stroke-miterlimit:4;stroke-dasharray:none;paint-order:normal"
     d="m 10411.031,3442.1659 589.357,-583.2649 167.877,-1841.054 -685.797,-301.55193 -225.027,2547.32033 z"
     id="path454-2"
     inkscape:connector-curvature="0" />
  <path
     style="fill:none;stroke:#000000;stroke-width:104.16666657;stroke-linecap:round;stroke-linejoin:round;stroke-opacity:1;stroke-miterlimit:4;stroke-dasharray:none;paint-order:normal"
     d="m 10586.052,3549.2962 317.896,392.811 2285.989,-3.9678 389.332,-388.8432 -325.039,-396.7789 -2293.133,7.9356 z"
     id="path456-2"
     inkscape:connector-curvature="0" />
  <path
     style="fill:none;stroke:#000000;stroke-width:104.16666657;stroke-linecap:round;stroke-linejoin:round;stroke-opacity:1;stroke-miterlimit:4;stroke-dasharray:none;paint-order:normal"
     d="m 13757.862,3450.1014 196.453,-198.3894 246.458,-2729.83864 c -92.003,-415.68183 -271.5,-458.778854 -403.62,-488.037958 l -321.467,777.686548 -196.452,2071.18575 z"
     id="path458-0"
     inkscape:connector-curvature="0"
     sodipodi:nodetypes="ccccccc" />
  <path
     style="fill:none;stroke:#000000;stroke-width:104.16666657;stroke-linecap:round;stroke-linejoin:round;stroke-opacity:1;stroke-miterlimit:4;stroke-dasharray:none;paint-order:normal"
     d="m 10399.22,3649.699 479.881,586.3809 -169.221,1857.3406 -732.449,286.1764 227.312,-2530.6968 z"
     id="path460-0"
     inkscape:connector-curvature="0" />
  <path
     style="fill:none;stroke:#000000;stroke-width:104.16666657;stroke-linecap:round;stroke-linejoin:round;stroke-opacity:1;stroke-miterlimit:4;stroke-dasharray:none;paint-order:normal"
     d="m 10684.623,6284.2048 -724.8718,294.593 c 60.9338,312.7231 217.3378,419.5791 391.4808,488.1829 l 2646.919,-2.8051 -199.529,-791.1937 z"
     id="path462-3"
     inkscape:connector-curvature="0"
     sodipodi:nodetypes="cccccc" />
  <path
     style="fill:none;stroke:#000000;stroke-width:104.16666657;stroke-linecap:round;stroke-linejoin:round;stroke-opacity:1;stroke-miterlimit:4;stroke-dasharray:none;paint-order:normal"
     d="m 13172.423,7064.1756 -194.478,-774.3597 181.85,-2056.5416 570.804,-580.7697 166.696,179.5617 -242.466,2735.509 c -94.124,326.7431 -274.507,444.9333 -482.406,496.6003 z"
     id="path464-9"
     inkscape:connector-curvature="0"
     sodipodi:nodetypes="ccccccc" />
  <ellipse
     id="path466-5"
     cx="14307.929"
     cy="6656.0742"
     style="fill:none;stroke:#000000;stroke-width:104.16666657;stroke-opacity:1;stroke-miterlimit:4;stroke-dasharray:none;stroke-linejoin:round;stroke-linecap:round;paint-order:normal"
     rx="346.47028"
     ry="384.87552" />
  <path
     style="fill:none;stroke:#000000;stroke-width:104.16666657;stroke-linecap:round;stroke-linejoin:round;stroke-opacity:1;stroke-miterlimit:4;stroke-dasharray:none;paint-order:normal"
     d="M 16205.822,810.38089 H 18297.09 L 18630.48,19.187506 16008.818,36.02139 c -303.354,95.65218 -397.906,291.69928 -479.88,493.79445 z"
     id="path452-1"
     inkscape:connector-curvature="0"
     sodipodi:nodetypes="cccccc" />
  <path
     style="fill:none;stroke:#000000;stroke-width:104.16666657;stroke-linecap:round;stroke-linejoin:round;stroke-opacity:1;stroke-miterlimit:4;stroke-dasharray:none;paint-order:normal"
     d="m 15424.567,3442.1659 589.357,-583.2649 167.877,-1841.054 -685.797,-301.55193 -225.027,2547.32033 z"
     id="path454-23"
     inkscape:connector-curvature="0" />
  <path
     style="fill:none;stroke:#000000;stroke-width:104.16666657;stroke-linecap:round;stroke-linejoin:round;stroke-opacity:1;stroke-miterlimit:4;stroke-dasharray:none;paint-order:normal"
     d="m 15599.588,3549.2962 317.896,392.811 2285.989,-3.9678 389.333,-388.8432 -325.039,-396.7789 -2293.133,7.9356 z"
     id="path456-5"
     inkscape:connector-curvature="0" />
  <path
     style="fill:none;stroke:#000000;stroke-width:104.16666657;stroke-linecap:round;stroke-linejoin:round;stroke-opacity:1;stroke-miterlimit:4;stroke-dasharray:none;paint-order:normal"
     d="m 18771.399,3450.1014 196.452,-198.3894 246.458,-2729.83864 c -92.003,-415.68183 -271.5,-458.778854 -403.62,-488.037958 L 18489.222,811.52195 18292.77,2882.7077 Z"
     id="path458-69"
     inkscape:connector-curvature="0"
     sodipodi:nodetypes="ccccccc" />
  <path
     style="fill:none;stroke:#000000;stroke-width:104.16666657;stroke-linecap:round;stroke-linejoin:round;stroke-opacity:1;stroke-miterlimit:4;stroke-dasharray:none;paint-order:normal"
     d="m 15412.757,3649.699 479.88,586.3809 -169.221,1857.3406 -732.449,286.1764 227.312,-2530.6968 z"
     id="path460-08"
     inkscape:connector-curvature="0" />
  <path
     style="fill:none;stroke:#000000;stroke-width:104.16666657;stroke-linecap:round;stroke-linejoin:round;stroke-opacity:1;stroke-miterlimit:4;stroke-dasharray:none;paint-order:normal"
     d="m 15698.159,6284.2048 -724.872,294.593 c 60.934,312.7231 217.338,419.5791 391.482,488.1829 l 2646.918,-2.8051 -199.529,-791.1937 z"
     id="path462-4"
     inkscape:connector-curvature="0"
     sodipodi:nodetypes="cccccc" />
  <path
     style="fill:none;stroke:#000000;stroke-width:104.16666657;stroke-linecap:round;stroke-linejoin:round;stroke-opacity:1;stroke-miterlimit:4;stroke-dasharray:none;paint-order:normal"
     d="m 18185.959,7064.1756 -194.477,-774.3597 181.849,-2056.5416 570.805,-580.7697 166.695,179.5617 -242.466,2735.509 c -94.123,326.7431 -274.507,444.9333 -482.406,496.6003 z"
     id="path464-6"
     inkscape:connector-curvature="0"
     sodipodi:nodetypes="ccccccc" />
  <ellipse
     id="path466-2"
     cx="19321.465"
     cy="6656.0742"
     style="fill:none;stroke:#000000;stroke-width:104.16666657;stroke-opacity:1;stroke-miterlimit:4;stroke-dasharray:none;stroke-linejoin:round;stroke-linecap:round;paint-order:normal"
     rx="346.47028"
     ry="384.87552" />
</svg>
